<svg  width="467" height="600" xmlns="http://www.w3.org/2000/svg" ><path  d="
 M 164 1 C 169 1, 177, 2, 181, 4
 C 189 9, 194, 14, 197, 20
 C 202 28, 204, 34, 205, 41
 C 202 32, 212, 34, 216, 31
 C 232 29, 255, 26, 269, 30
 C 280 27, 289, 22, 298, 17
 C 297 30, 295, 25, 301, 31
 C 316 36, 333, 39, 348, 47
 C 350 40, 350, 33, 353, 27
 C 357 21, 362, 16, 367, 15
 C 376 13, 384, 13, 390, 15
 C 400 18, 406, 24, 410, 31
 C 415 38, 416, 46, 415, 54
 C 414 63, 408, 69, 402, 73
 C 398 76, 395, 76, 392, 78
 C 384 72, 379, 66, 372, 61
 C 369 55, 369, 49, 371, 45
 C 368 48, 370, 55, 367, 58
 C 376 64, 386, 74, 393, 83
 C 402 96, 407, 106, 412, 118
 C 422 144, 426, 173, 428, 200
 C 430 198, 433, 195, 434, 191
 C 434 201, 431, 208, 430, 215
 C 431 226, 434, 238, 433, 248
 C 429 248, 429, 243, 425, 242
 C 423 253, 417, 263, 412, 274
 C 400 289, 389, 307, 377, 317
 C 378 325, 379, 335, 380, 346
 C 378 350, 376, 345, 375, 345
 C 376 348, 379, 348, 379, 350
 L 381 348
 L 381 345 C 380 337, 379, 329, 378, 322
 C 385 310, 392, 302, 400, 293
 C 410 308, 418, 322, 428, 336
 C 427 339, 425, 335, 422, 334
 C 431 349, 438, 364, 444, 379
 C 452 422, 459, 454, 465, 495
 C 460 524, 450, 556, 442, 573
 C 437 572, 434, 569, 433, 566
 C 437 564, 438, 559, 441, 561
 L 442 561 L 442 563 L 443 562
 L 440 560 C 438 560, 436, 562, 434, 563
 C 430 568, 429, 570, 428, 573
 L 426 573
 L 425 571 C 426 567, 425, 564, 421, 563
 C 425 564, 426, 567, 425, 571
 C 418 578, 423, 574, 419, 582
 C 413 581, 411, 582, 408, 582
 C 411 576, 411, 572, 413, 568
 C 413 568, 412, 571, 411, 573
 C 408 570, 411, 567, 409, 564
 L 409 563 L 408 562
 L 406 561 C 403 560, 402, 561, 401, 562
 C 403 560, 406, 559, 407, 563
 C 410 576, 403, 574, 403, 580
 C 383 582, 364, 580, 347, 579
 C 333 571, 328, 558, 321, 547
 C 331 539, 340, 532, 342, 525
 C 338 527, 332, 533, 326, 537
 C 338 518, 348, 500, 353, 480
 C 346 499, 337, 516, 324, 533
 C 318 538, 315, 543, 310, 546
 C 299 549, 291, 552, 282, 553
 C 286 532, 300, 515, 304, 493
 C 299 508, 293, 523, 285, 538
 C 285 515, 284, 490, 278, 469
 C 284 492, 283, 518, 280, 541
 C 278 555, 275, 566, 271, 577
 C 267 577, 267, 572, 262, 574
 C 265 573, 268, 576, 268, 578
 C 266 592, 259, 580, 266, 592
 C 259 594, 254, 593, 251, 594
 C 252 588, 255, 582, 255, 579
 C 253 583, 251, 586, 249, 590
 C 246 587, 246, 582, 243, 579
 C 239 577, 236, 577, 234, 578
 C 228 583, 227, 588, 226, 594
 C 198 593, 172, 593, 147, 589
 C 131 571, 121, 553, 108, 536
 C 109 541, 113, 547, 116, 552
 C 100 545, 88, 533, 77, 521
 C 66 507, 58, 494, 53, 480
 C 49 466, 47, 453, 44, 441
 C 46 457, 50, 472, 54, 487
 C 65 508, 75, 530, 89, 545
 C 88 557, 90, 569, 96, 577
 C 84 580, 68, 579, 56, 578
 C 42 568, 35, 556, 27, 545
 C 13 518, 6, 490, 4, 460
 C 11 464, 20, 468, 25, 474
 C 25 453, 23, 430, 27, 409
 C 18 402, 10, 395, 3, 387
 C 14 384, 21, 388, 29, 389
 C 30 384, 32, 382, 31, 378
 C 26 372, 20, 367, 13, 364
 C 21 361, 28, 357, 37, 359
 C 32 349, 29, 338, 28, 327
 C 37 327, 43, 334, 51, 335
 C 50 333, 46, 334, 48, 330
 C 61 307, 74, 285, 87, 264
 C 90 232, 95, 202, 99, 172
 C 99 174, 97, 175, 97, 177
 C 94 172, 95, 166, 95, 159
 C 91 160, 88, 165, 85, 163
 C 89 154, 90, 146, 94, 140
 C 112 119, 124, 98, 138, 77
 C 145 72, 156, 80, 162, 72
 C 155 75, 147, 72, 140, 71
 C 132 66, 127, 58, 125, 52
 C 122 42, 124, 33, 127, 26
 C 133 10, 147, 0, 162, 2" fill="rgb(152,99,74)" />
<path  d="
 M 140 9 C 134 14, 129, 20, 127, 26
 L 127 29 L 127 30
 L 126 32 C 124 38, 124, 46, 127, 52
 C 130 60, 134, 67, 140, 70
 C 149 72, 156, 74, 162, 70
 C 157 81, 146, 75, 141, 75
 C 125 107, 95, 130, 87, 162
 C 90 161, 92, 159, 94, 157
 C 94 182, 98, 170, 100, 174
 C 95 207, 91, 235, 89, 264
 C 75 284, 62, 307, 50, 328
 C 48 333, 51, 332, 52, 334
 C 44 336, 38, 329, 31, 325
 C 30 338, 33, 349, 38, 359
 C 29 358, 23, 362, 13, 362
 C 21 366, 27, 372, 33, 376
 C 33 382, 31, 384, 32, 388
 C 22 389, 14, 385, 6, 385
 C 11 395, 20, 401, 27, 407
 C 24 430, 26, 453, 25, 474
 C 22 468, 11, 467, 6, 459
 C 5 469, 6, 478, 8, 486
 C 12 508, 18, 526, 27, 543
 C 35 555, 43, 567, 53, 576
 C 68 578, 84, 579, 95, 579
 C 89 568, 87, 557, 89, 546
 C 74 530, 64, 508, 54, 489
 C 49 471, 45, 456, 43, 440
 C 47 452, 50, 465, 53, 478
 C 59 494, 67, 507, 76, 520
 C 89 533, 100, 544, 113, 552
 C 112 546, 107, 540, 106, 534
 C 121 552, 132, 570, 145, 587
 C 172 592, 198, 592, 224, 593
 C 226 586, 231, 577, 238, 576
 C 246 579, 247, 585, 248, 589
 C 250 586, 252, 582, 254, 579
 C 256 582, 253, 588, 251, 592
 C 254 592, 257, 592, 260, 593
 C 269 593, 260, 586, 264, 585
 C 267 584, 268, 583, 267, 580
 C 267 582, 268, 584, 267, 585
 C 262 580, 259, 582, 255, 580
 C 275 576, 254, 571, 273, 576
 C 277 557, 280, 541, 281, 524
 C 281 533, 279, 542, 277, 550
 C 266 553, 258, 556, 250, 560
 C 247 556, 248, 551, 248, 548
 C 246 552, 247, 557, 245, 560
 C 236 564, 228, 566, 222, 567
 C 207 572, 198, 557, 196, 564
 C 189 556, 189, 546, 188, 536
 C 200 532, 210, 522, 215, 512
 C 219 500, 217, 488, 213, 479
 C 220 484, 229, 481, 232, 476
 C 236 476, 237, 478, 239, 477
 C 242 484, 244, 489, 250, 491
 C 264 485, 256, 467, 272, 465
 C 282 480, 281, 500, 282, 519
 C 282 499, 279, 472, 277, 464
 C 271 454, 266, 448, 259, 444
 C 255 443, 271, 455, 272, 460
 C 269 464, 265, 467, 261, 469
 C 259 464, 254, 459, 250, 461
 C 238 462, 243, 479, 235, 476
 C 235 470, 234, 462, 228, 458
 C 221 453, 215, 460, 213, 461
 C 211 450, 207, 442, 205, 434
 C 206 445, 205, 440, 211, 461
 C 209 450, 196, 458, 192, 460
 C 188 465, 186, 469, 187, 475
 C 188 481, 192, 479, 194, 481
 C 186 486, 184, 496, 187, 503
 C 167 495, 152, 479, 138, 464
 C 126 448, 117, 433, 111, 417
 C 114 414, 115, 415, 116, 416
 C 114 413, 110, 414, 109, 410
 C 104 398, 102, 387, 100, 376
 C 99 361, 97, 347, 99, 334
 C 103 329, 105, 326, 107, 323
 C 109 328, 107, 331, 109, 334
 C 114 329, 119, 326, 124, 322
 C 126 329, 129, 331, 134, 328
 C 142 319, 153, 316, 162, 311
 C 180 360, 189, 379, 203, 430
 C 209 428, 215, 429, 218, 428
 C 221 412, 223, 406, 229, 391
 C 238 372, 248, 354, 259, 342
 C 274 338, 286, 331, 299, 331
 C 312 331, 322, 329, 330, 334
 C 339 339, 343, 348, 347, 350
 C 355 364, 362, 378, 367, 392
 C 373 405, 374, 428, 374, 445
 C 381 439, 387, 436, 392, 432
 C 393 423, 394, 410, 392, 400
 C 394 408, 393, 418, 393, 428
 C 388 421, 383, 426, 376, 430
 C 375 415, 372, 404, 369, 393
 C 366 389, 366, 385, 364, 382
 C 359 370, 355, 360, 349, 351
 C 346 347, 344, 344, 341, 342
 C 357 349, 372, 362, 379, 378
 C 382 373, 380, 370, 381, 365
 C 381 368, 380, 370, 379, 371
 C 375 367, 361, 353, 343, 324
 C 356 336, 360, 346, 368, 355
 C 365 352, 362, 348, 360, 345
 C 364 345, 369, 344, 372, 345
 C 379 379, 377, 333, 388, 380
 C 387 374, 382, 363, 387, 366
 C 395 387, 398, 408, 398, 429
 C 413 423, 431, 430, 436, 430
 C 429 432, 449, 435, 456, 452
 C 453 419, 453, 454, 449, 420
 C 443 422, 438, 424, 431, 423
 C 428 418, 427, 413, 426, 408
 C 421 401, 416, 408, 414, 410
 C 407 407, 406, 401, 403, 397
 C 397 377, 390, 360, 390, 340
 C 392 324, 410, 319, 406, 305
 C 410 310, 413, 315, 416, 319
 C 413 315, 410, 310, 408, 305
 C 405 300, 403, 297, 402, 294
 C 393 302, 386, 311, 381, 320
 C 379 331, 385, 343, 379, 351
 C 380 338, 376, 326, 377, 315
 C 387 308, 400, 288, 409, 276
 C 414 268, 417, 262, 420, 256
 C 422 250, 423, 245, 425, 242
 C 428 242, 431, 245, 432, 248
 C 433 233, 424, 237, 433, 199
 C 427 213, 430, 228, 424, 239
 C 423 245, 421, 249, 420, 253
 C 417 262, 410, 263, 405, 266
 C 409 248, 410, 230, 405, 215
 C 413 199, 416, 185, 416, 169
 L 415 167
 L 415 164 C 414 144, 407, 126, 397, 109
 C 406 126, 413, 144, 414, 164
 C 414 183, 412, 199, 405, 212
 C 404 213, 402, 213, 403, 212
 C 399 206, 395, 202, 391, 201
 C 395 202, 397, 207, 401, 209
 C 404 216, 406, 221, 406, 227
 C 407 243, 404, 255, 400, 267
 C 389 270, 379, 274, 370, 273
 C 375 265, 379, 258, 383, 251
 C 388 252, 391, 253, 394, 254
 C 392 252, 389, 251, 386, 249
 C 384 244, 386, 241, 387, 239
 C 383 235, 381, 254, 375, 259
 C 311 272, 279, 258, 253, 268
 C 238 263, 241, 244, 238, 251
 C 240 241, 237, 236, 238, 228
 C 238 235, 238, 241, 238, 248
 L 235 249 L 234 249 L 234 251
 L 231 251 C 227 254, 220, 256, 215, 253
 C 208 251, 206, 246, 204, 243
 L 204 241
 L 204 243 C 205 247, 208, 251, 213, 253
 L 214 254 L 215 254 L 217 255
 L 218 255 C 225 257, 230, 254, 235, 251
 C 238 257, 241, 263, 242, 268
 C 219 268, 207, 267, 186, 261
 C 178 258, 172, 257, 166, 253
 C 161 249, 161, 244, 158, 242
 C 158 244, 158, 246, 158, 247
 C 146 223, 138, 198, 134, 172
 C 138 167, 140, 169, 141, 172
 C 142 169, 137, 167, 139, 163
 C 145 149, 151, 137, 157, 124
 C 148 139, 140, 158, 134, 169
 C 126 161, 116, 157, 107, 157
 C 102 153, 105, 150, 104, 148
 C 108 135, 109, 124, 117, 115
 C 131 96, 158, 85, 162, 74
 C 169 66, 173, 59, 181, 58
 C 176 61, 169, 60, 165, 58
 C 189 55, 180, 55, 198, 48
 C 196 48, 194, 48, 192, 50
 C 191 39, 188, 33, 181, 28
 C 175 24, 168, 22, 163, 25
 C 157 28, 153, 31, 152, 35
 C 150 45, 154, 50, 158, 55
 C 157 61, 151, 53, 153, 60
 C 155 55, 157, 66, 164, 65
 C 164 70, 156, 72, 156, 67
 C 151 63, 144, 59, 143, 50
 C 141 41, 140, 31, 146, 25
 C 143 28, 140, 30, 140, 34
 C 135 34, 131, 33, 127, 32
 L 127 30 L 127 29
 L 127 26 C 129 20, 132, 15, 138, 11" fill="rgb(98,50,39)" />
<path  d="
 M 140 9 C 132 15, 119, 35, 140, 34
 C 140 29, 142, 26, 145, 22
 C 141 31, 142, 41, 144, 48
 C 147 60, 153, 64, 157, 68
 C 162 68, 164, 66, 168, 63
 C 167 74, 152, 58, 153, 60
 C 153 51, 160, 64, 163, 58
 C 161 57, 152, 51, 152, 46
 C 149 36, 152, 30, 159, 26
 C 166 21, 174, 22, 180, 25
 C 189 32, 192, 39, 192, 47
 C 194 47, 197, 47, 199, 45
 C 191 52, 183, 57, 175, 62
 C 161 84, 140, 91, 119, 114
 C 109 126, 108, 141, 104, 154
 C 116 156, 126, 160, 131, 169
 C 140 156, 148, 136, 157, 123
 C 152 137, 146, 149, 141, 162
 C 138 167, 143, 169, 143, 172
 C 141 173, 139, 167, 136, 170
 C 139 198, 147, 222, 155, 246
 C 156 245, 159, 243, 157, 240
 C 161 244, 162, 248, 164, 251
 C 174 256, 183, 259, 191, 262
 C 212 266, 221, 267, 241, 268
 C 239 261, 238, 257, 236, 253
 C 230 255, 225, 258, 218, 256
 C 210 255, 205, 249, 203, 244
 C 207 246, 210, 253, 217, 253
 C 225 254, 230, 251, 235, 248
 C 236 228, 239, 211, 245, 196
 C 251 179, 259, 165, 269, 153
 C 255 116, 259, 129, 253, 113
 C 261 97, 264, 98, 265, 93
 C 279 85, 291, 82, 305, 84
 C 316 84, 325, 88, 333, 92
 C 343 96, 349, 101, 355, 108
 C 354 111, 352, 106, 349, 105
 C 355 109, 359, 114, 362, 120
 C 356 137, 364, 125, 360, 152
 C 361 154, 365, 156, 366, 158
 C 370 151, 367, 155, 362, 151
 C 368 145, 372, 143, 376, 141
 C 387 138, 399, 137, 407, 142
 C 404 148, 400, 151, 395, 153
 C 397 164, 398, 176, 394, 184
 C 390 188, 386, 193, 382, 190
 C 384 199, 388, 207, 388, 216
 C 389 229, 388, 238, 385, 247
 C 389 251, 394, 250, 397, 252
 C 391 254, 388, 253, 384, 251
 C 380 258, 376, 265, 370, 271
 C 380 272, 392, 270, 400, 265
 C 406 247, 408, 226, 400, 211
 C 407 211, 408, 223, 409, 231
 C 408 244, 409, 255, 404, 263
 C 409 261, 414, 262, 417, 257
 C 428 238, 426, 215, 433, 196
 C 430 200, 425, 203, 421, 206
 C 426 198, 425, 199, 426, 195
 C 424 172, 421, 152, 415, 134
 C 411 121, 408, 111, 403, 101
 C 400 100, 399, 101, 397, 101
 C 397 97, 399, 100, 399, 97
 C 394 81, 380, 73, 370, 64
 C 378 69, 378, 69, 373, 64
 C 358 46, 360, 62, 292, 32
 C 299 34, 300, 43, 290, 42
 C 292 40, 293, 37, 297, 34
 C 292 35, 289, 38, 285, 38
 C 294 28, 301, 21, 294, 22
 C 285 26, 274, 31, 262, 34
 C 264 27, 214, 39, 218, 32
 C 210 36, 205, 35, 206, 44
 C 202 45, 195, 15, 179, 13
 C 165 9, 147, 7, 137, 12" fill="rgb(200,119,74)" />
<path  d="
 M 299 333 C 285 334, 272, 340, 260, 345
 C 250 354, 245, 363, 240, 373
 C 239 387, 234, 400, 234, 413
 C 229 404, 235, 390, 236, 379
 C 228 393, 223, 410, 219, 426
 C 231 429, 243, 432, 253, 437
 C 264 444, 272, 454, 277, 462
 C 288 463, 299, 460, 308, 459
 C 309 450, 311, 442, 308, 436
 C 306 430, 303, 428, 300, 426
 C 303 427, 308, 427, 309, 431
 C 311 418, 311, 404, 309, 393
 C 316 415, 312, 437, 314, 459
 C 313 473, 309, 483, 307, 493
 C 311 484, 313, 474, 314, 463
 C 334 453, 355, 447, 370, 432
 C 371 434, 371, 437, 372, 440
 C 374 416, 368, 396, 359, 377
 C 352 362, 346, 350, 336, 339
 C 325 331, 312, 333, 301, 332" fill="rgb(233,216,188)" />
<path  d="
 M 163 313 C 151 315, 138, 328, 131, 331
 C 125 330, 127, 326, 126, 323
 C 119 327, 114, 330, 110, 336
 C 109 321, 107, 322, 100, 337
 C 98 363, 102, 386, 109, 408
 C 112 413, 115, 413, 117, 415
 C 115 417, 115, 415, 112, 416
 C 118 433, 127, 448, 137, 462
 C 152 479, 167, 494, 185, 503
 C 182 495, 186, 486, 194, 482
 C 192 479, 189, 482, 188, 478
 C 185 474, 185, 469, 187, 467
 C 192 463, 187, 471, 188, 473
 C 192 476, 198, 475, 202, 476
 C 202 470, 200, 466, 197, 463
 C 192 459, 191, 466, 189, 464
 C 192 458, 197, 457, 201, 455
 C 207 453, 209, 457, 209, 459
 C 185 384, 182, 383, 169, 322
 C 167 317, 164, 315, 164, 314" fill="rgb(203,121,74)" />
<path  d="
 M 308 142 C 295 143, 283, 144, 274, 153
 C 260 170, 251, 187, 245, 205
 C 241 225, 238, 246, 244, 264
 C 264 265, 280, 258, 298, 260
 C 293 259, 289, 258, 285, 256
 C 281 253, 279, 249, 281, 246
 C 297 231, 312, 221, 328, 212
 C 329 208, 331, 204, 329, 201
 C 319 194, 304, 188, 303, 176
 C 303 169, 303, 164, 305, 159
 C 310 155, 314, 153, 318, 153
 C 328 152, 335, 152, 341, 155
 C 347 157, 352, 161, 353, 165
 C 353 174, 355, 182, 351, 187
 C 347 197, 339, 197, 335, 202
 C 333 206, 334, 209, 332, 211
 C 347 221, 362, 234, 368, 248
 C 360 257, 350, 259, 342, 261
 C 354 262, 365, 258, 375, 255
 C 381 246, 386, 235, 384, 221
 C 379 183, 361, 133, 311, 144
 L 311 142 L 310 142" fill="rgb(230,206,177)" />
<path  d="
 M 373 443 C 370 457, 355, 467, 352, 482
 C 336 489, 321, 493, 306, 497
 C 305 490, 310, 487, 306, 482
 C 305 487, 304, 492, 302, 497
 C 296 498, 293, 499, 289, 498
 C 273 441, 291, 520, 283, 534
 C 291 524, 297, 510, 302, 496
 C 299 517, 287, 533, 281, 551
 C 291 551, 299, 548, 307, 545
 C 314 543, 318, 538, 322, 535
 C 336 516, 346, 498, 352, 479
 C 349 500, 339, 518, 326, 534
 C 333 532, 339, 524, 346, 523
 C 341 530, 334, 539, 322, 545
 C 329 557, 333, 570, 344, 578
 C 364 579, 383, 581, 400, 580
 C 404 575, 403, 574, 407, 573
 L 407 570 L 407 568 L 408 571
 L 406 572 C 405 568, 402, 574, 398, 567
 C 400 563, 405, 559, 408, 564
 C 406 560, 403, 563, 401, 561
 C 415 556, 406, 579, 412, 568
 C 412 574, 411, 577, 408, 579
 C 412 580, 416, 581, 419, 579
 C 419 575, 429, 572, 423, 564
 C 428 566, 426, 569, 427, 571
 C 429 569, 430, 567, 432, 564
 C 434 565, 434, 566, 434, 567
 C 430 567, 430, 576, 426, 578
 C 435 582, 437, 575, 440, 573
 C 450 556, 458, 525, 462, 501
 C 458 515, 458, 532, 450, 544
 C 438 548, 426, 549, 416, 546
 C 402 543, 389, 540, 382, 531
 C 378 513, 382, 497, 386, 483
 C 390 468, 394, 456, 402, 445
 C 390 459, 385, 477, 381, 493
 C 375 491, 376, 500, 371, 499
 C 363 494, 363, 486, 364, 478
 C 371 466, 371, 452, 382, 444
 C 375 449, 372, 454, 366, 459
 C 367 454, 373, 451, 373, 445" fill="rgb(95,56,47)" />
<path  d="
 M 431 433 C 419 430, 407, 438, 400, 444
 C 394 442, 382, 449, 382, 444
 C 372 452, 372, 466, 365, 476
 C 364 484, 364, 490, 367, 494
 C 372 503, 375, 492, 378, 494
 C 384 477, 389, 461, 399, 447
 C 393 461, 389, 475, 385, 488
 C 381 502, 380, 516, 383, 528
 C 392 540, 406, 543, 418, 546
 C 431 547, 442, 546, 450, 542
 C 456 527, 459, 514, 461, 500
 C 461 483, 462, 469, 457, 457
 C 452 445, 443, 435, 432, 432" fill="rgb(171,98,62)" />
<path  d="
 M 273 465 C 256 467, 265, 486, 251, 492
 C 244 490, 241, 484, 239, 480
 C 231 474, 223, 490, 215, 479
 C 218 488, 220, 500, 216, 510
 C 211 522, 202, 533, 190, 535
 C 190 546, 190, 555, 195, 563
 C 201 565, 227, 571, 243, 560
 C 246 556, 245, 551, 247, 548
 C 249 550, 248, 555, 249, 559
 C 258 555, 266, 552, 275, 550
 C 280 533, 281, 516, 280, 497
 C 279 485, 278, 474, 274, 465" fill="rgb(166,92,57)" />
<path  d="
 M 290 87 C 284 88, 279, 89, 275, 92
 C 236 106, 266, 128, 274, 148
 C 283 141, 294, 138, 307, 139
 C 326 139, 343, 139, 356, 149
 C 356 138, 359, 130, 363, 122
 C 357 113, 351, 106, 344, 102
 C 335 95, 326, 92, 318, 89
 C 308 87, 300, 86, 291, 87" fill="rgb(242,221,196)" />
<path  d="
 M 407 305 C 411 319, 393, 324, 393, 338
 C 391 360, 398, 377, 404, 394
 C 407 401, 407, 406, 412, 408
 C 416 407, 418, 404, 421, 403
 C 429 409, 428, 415, 430, 421
 C 438 423, 443, 421, 448, 419
 C 451 427, 451, 433, 452, 440
 C 452 420, 449, 413, 448, 406
 C 441 379, 425, 346, 420, 331
 C 415 323, 416, 323, 407, 307" fill="rgb(204,123,76)" />
<path  d="
 M 195 135
 L 197 134 C 205 133, 213, 133, 221, 133
 C 238 136, 251, 145, 265, 149
 C 259 156, 254, 159, 249, 163
 C 249 172, 248, 179, 244, 184
 C 238 190, 233, 191, 228, 193
 C 218 192, 212, 185, 207, 180
 C 203 170, 204, 158, 207, 151
 C 191 148, 159, 142, 195, 134" fill="rgb(68,38,38)" />
<path  d="
 M 199 134 C 162 141, 188, 146, 206, 148
 C 205 158, 204, 169, 208, 177
 C 212 185, 218, 191, 225, 191
 C 233 191, 238, 189, 242, 186
 C 247 179, 248, 172, 247, 165
 C 253 159, 258, 156, 263, 152
 C 250 146, 238, 137, 224, 135
 C 214 135, 206, 135, 198, 135" fill="rgb(58,33,35)" />
<path  d="
 M 331 214 C 326 215, 322, 217, 319, 220
 C 321 220, 324, 216, 326, 217
 C 326 222, 324, 224, 323, 227
 C 317 228, 316, 220, 315, 222
 C 302 231, 289, 238, 282, 249
 C 297 259, 313, 260, 330, 259
 C 362 264, 377, 239, 341, 222
 C 343 225, 341, 227, 338, 229
 C 328 223, 340, 213, 333, 215" fill="rgb(46,23,30)" />
<path  d="
 M 200 136 C 205 135, 211, 136, 215, 135
 C 233 138, 245, 145, 259, 150
 C 253 153, 249, 149, 244, 147
 C 249 156, 248, 167, 247, 177
 C 244 182, 241, 185, 238, 187
 C 232 192, 228, 191, 223, 190
 C 214 188, 208, 180, 206, 174
 C 206 165, 204, 158, 208, 153
 C 209 146, 214, 144, 216, 140
 C 211 137, 185, 141, 198, 136" fill="rgb(46,30,36)" />
<path  d="
 M 255 342 C 240 366, 221, 397, 216, 426
 C 211 427, 209, 428, 206, 428
 C 200 417, 196, 406, 193, 395
 C 208 373, 229, 358, 249, 346" fill="rgb(172,97,60)" />
<path  d="
 M 202 137 C 183 140, 212, 136, 217, 140
 C 214 143, 210, 147, 209, 150
 C 205 158, 207, 165, 206, 171
 C 209 180, 214, 187, 220, 189
 C 227 190, 229, 191, 233, 189
 C 239 187, 243, 182, 245, 179
 C 247 167, 248, 156, 242, 149
 C 248 147, 252, 152, 259, 150
 C 245 146, 232, 139, 218, 137
 C 212 137, 207, 136, 203, 136" fill="rgb(42,29,37)" />
<path  d="
 M 372 420 C 373 427, 373, 434, 373, 441
 C 370 438, 370, 435, 371, 433
 C 354 448, 334, 454, 316, 464
 C 313 474, 313, 487, 307, 496
 C 321 491, 337, 488, 350, 481
 C 356 469, 363, 459, 370, 449
 C 373 440, 373, 431, 372, 422" fill="rgb(186,158,130)" />
<path  d="
 M 321 155 C 313 155, 304, 159, 306, 169
 C 306 176, 306, 181, 310, 185
 C 318 191, 324, 195, 331, 199
 C 338 197, 343, 193, 347, 189
 C 353 183, 351, 175, 352, 169
 C 352 163, 347, 161, 346, 158
 C 337 155, 329, 156, 323, 154" fill="rgb(55,45,48)" />
<path  d="
 M 253 345 C 232 357, 210, 372, 194, 393
 C 197 405, 201, 416, 204, 427
 C 208 426, 211, 426, 214, 427
 C 217 414, 223, 400, 227, 389
 C 236 373, 243, 358, 253, 345" fill="rgb(178,101,62)" />
<path  d="
 M 320 156 C 329 154, 338, 156, 344, 159
 C 353 166, 351, 177, 350, 185
 C 344 192, 339, 195, 334, 198
 C 323 192, 311, 189, 306, 178
 C 303 167, 309, 157, 319, 157" fill="rgb(57,48,51)" />
<path  d="
 M 410 30 C 412 35, 414, 40, 415, 45
 C 410 44, 410, 40, 408, 37
 C 408 39, 412, 47, 406, 47
 C 397 44, 397, 32, 387, 33
 C 381 33, 377, 35, 373, 38
 L 372 40 L 371 41 L 371 43
 L 370 45 C 369 47, 368, 50, 367, 53
 C 358 52, 361, 46, 362, 41
 C 358 39, 354, 41, 351, 39
 C 351 43, 351, 45, 348, 47
 C 353 50, 361, 54, 366, 58
 C 368 56, 368, 49, 370, 45
 C 370 48, 371, 53, 371, 58
 C 379 64, 383, 71, 390, 76
 C 396 75, 400, 74, 404, 71
 C 416 61, 417, 43, 411, 32" fill="rgb(85,49,43)" />
<path  d="
 M 342 341 C 352 353, 358, 366, 365, 379
 C 371 396, 376, 411, 377, 427
 C 375 427, 380, 424, 382, 424
 C 386 428, 393, 425, 390, 431
 L 393 431
 L 391 431 C 394 422, 392, 408, 391, 399
 C 389 382, 384, 369, 380, 355
 C 380 363, 383, 371, 382, 379
 C 372 363, 359, 351, 344, 342" fill="rgb(178,102,66)" />
<path  d="
 M 205 430 C 209 439, 211, 449, 213, 458
 C 216 456, 222, 453, 226, 456
 C 234 461, 236, 468, 234, 475
 C 242 477, 238, 461, 248, 461
 C 255 458, 259, 463, 261, 467
 C 265 466, 268, 464, 272, 462
 C 267 451, 254, 443, 250, 441
 L 248 440
 L 249 442 C 243 435, 227, 436, 202, 430" fill="rgb(191,111,70)" />
<path  d="
 M 311 160 C 305 164, 305, 174, 308, 181
 C 315 189, 322, 191, 328, 195
 C 336 198, 342, 191, 348, 187
 C 350 179, 350, 171, 349, 165
 C 337 158, 321, 158, 310, 162" fill="rgb(52,43,47)" />
<path  d="
 M 100 470 C 111 482, 124, 496, 137, 504
 C 153 507, 169, 522, 183, 522
 C 183 518, 185, 515, 184, 509
 C 187 515, 185, 519, 187, 524
 C 193 523, 198, 520, 203, 517
 C 209 507, 213, 498, 211, 487
 C 214 490, 213, 495, 214, 499
 C 214 519, 192, 526, 186, 533
 C 184 527, 169, 530, 161, 524
 C 156 527, 155, 527, 162, 530
 C 154 531, 145, 527, 138, 523
 C 137 512, 113, 493, 97, 471" fill="rgb(42,19,21)" />
<path  d="
 M 389 142 C 381 142, 375, 145, 369, 149
 C 359 166, 394, 199, 386, 235
 C 382 250, 376, 262, 365, 271
 C 356 278, 348, 281, 340, 284
 C 325 288, 311, 286, 298, 287
 C 284 285, 274, 283, 264, 280
 C 255 277, 250, 272, 244, 269
 C 242 265, 242, 262, 240, 260
 C 242 262, 242, 265, 243, 267
 C 249 274, 255, 277, 260, 280
 C 277 286, 292, 288, 308, 288
 C 329 288, 349, 285, 363, 275
 C 377 263, 382, 251, 386, 238
 C 388 220, 384, 203, 379, 190
 C 387 191, 394, 184, 393, 177
 C 395 165, 395, 155, 389, 147
 C 403 145, 405, 141, 389, 141" fill="rgb(45,31,35)" />
<path  d="
 M 361 20 C 356 25, 344, 43, 362, 38
 C 363 45, 358, 51, 365, 52
 C 367 45, 372, 37, 379, 33
 C 386 33, 389, 30, 393, 34
 C 400 36, 398, 45, 404, 45
 C 411 45, 407, 39, 408, 37
 C 410 40, 411, 43, 412, 46
 C 413 39, 411, 35, 409, 30
 C 403 22, 402, 26, 393, 21
 C 382 19, 369, 23, 360, 22" fill="rgb(202,119,76)" />
<path  d="
 M 99 471 C 105 484, 119, 497, 131, 506
 C 131 514, 127, 506, 128, 510
 C 135 520, 144, 527, 155, 529
 C 167 533, 146, 525, 163, 524
 C 176 528, 184, 530, 185, 532
 C 192 525, 213, 519, 211, 501
 C 212 496, 213, 491, 213, 488
 C 213 497, 211, 505, 207, 512
 C 202 519, 196, 523, 191, 525
 C 183 524, 186, 516, 185, 511
 C 186 515, 184, 519, 185, 525
 C 169 522, 154, 509, 140, 507
 C 131 501, 112, 486, 102, 472" fill="rgb(36,15,18)" />
<path  d="
 M 307 460 C 297 461, 286, 465, 277, 464
 C 284 474, 281, 485, 287, 497
 C 294 498, 297, 496, 300, 496
 C 307 484, 308, 466, 309, 459" fill="rgb(182,154,127)" />
<path  d="
 M 418 439 C 429 435, 435, 449, 430, 456
 C 428 464, 422, 471, 416, 471
 C 409 464, 407, 456, 410, 450
 C 412 445, 414, 442, 417, 441" fill="rgb(109,74,63)" />
<path  d="
 M 293 246 C 300 245, 307, 246, 313, 245
 C 324 246, 332, 249, 339, 255
 C 328 259, 316, 258, 306, 259
 C 297 257, 275, 252, 292, 246" fill="rgb(126,63,59)" />
<path  d="
 M 420 440 C 416 442, 413, 443, 411, 447
 C 408 456, 411, 463, 413, 469
 C 422 471, 427, 464, 429, 459
 C 432 450, 431, 439, 421, 439" fill="rgb(99,70,62)" />
<path  d="
 M 384 242 C 385 252, 375, 266, 366, 274
 C 355 281, 346, 285, 337, 287
 C 316 291, 299, 289, 280, 286
 C 267 284, 256, 280, 246, 272
 C 256 277, 267, 282, 279, 283
 C 297 286, 316, 287, 333, 284
 C 345 282, 355, 278, 364, 272
 C 373 263, 378, 255, 382, 246" fill="rgb(52,30,28)" />
<path  d="
 M 443 451 C 452 449, 455, 460, 453, 467
 C 452 474, 446, 477, 443, 479
 C 435 476, 435, 468, 433, 465
 C 436 461, 436, 454, 441, 452" fill="rgb(116,82,69)" />
<path  d="
 M 445 452 C 438 453, 437, 460, 434, 465
 C 436 468, 435, 475, 441, 477
 C 446 476, 451, 474, 452, 470
 C 453 461, 453, 454, 446, 452" fill="rgb(107,79,68)" />
<path  d="
 M 191 486 C 197 487, 202, 493, 205, 501
 C 204 506, 201, 508, 199, 509
 C 192 509, 187, 509, 184, 506
 C 190 504, 197, 510, 202, 503
 C 201 499, 199, 495, 197, 493
 C 198 496, 201, 499, 202, 502
 C 199 507, 194, 505, 191, 506
 C 186 499, 184, 490, 190, 487" fill="rgb(121,96,84)" />
<path  d="
 M 271 316 C 255 324, 225, 346, 212, 367
 C 205 356, 209, 351, 210, 339
 C 212 348, 211, 354, 212, 361
 C 221 350, 233, 340, 241, 328
 C 251 325, 257, 320, 265, 318" fill="rgb(50,22,20)" />
<path  d="
 M 418 442 C 430 440, 432, 447, 428, 459
 C 426 465, 422, 470, 417, 470
 C 410 464, 408, 456, 411, 451
 L 412 449
 L 412 451 C 413 456, 412, 467, 418, 467
 C 425 462, 424, 456, 428, 453
 C 414 457, 420, 450, 414, 452
 C 414 447, 416, 445, 416, 443" fill="rgb(106,80,70)" />
<path  d="
 M 191 461 C 202 457, 203, 477, 201, 462
 C 205 470, 208, 475, 206, 479
 C 165 477, 231, 475, 183, 477
 C 187 470, 188, 466, 189, 463" fill="rgb(127,97,80)" />
<path  d="
 M 63 377 C 66 398, 69, 422, 78, 441
 C 77 453, 78, 463, 75, 471
 C 82 438, 59, 415, 62, 381" fill="rgb(52,25,23)" />
<path  d="
 M 396 108 C 406 121, 413, 138, 415, 155
 C 418 176, 415, 196, 407, 211
 C 411 198, 413, 183, 414, 167
 C 412 145, 406, 127, 396, 112" fill="rgb(161,82,49)" />
<path  d="
 M 157 4 C 155 5, 153, 4, 152, 5
 C 120 17, 168, 1, 176, 12
 C 184 13, 188, 18, 193, 20
 C 198 28, 201, 34, 203, 41
 C 202 34, 200, 28, 197, 21
 C 191 13, 185, 7, 179, 5
 C 171 3, 164, 4, 159, 3" fill="rgb(243,207,178)" />
<path  d="
 M 165 149 C 171 170, 180, 192, 192, 211
 C 190 213, 188, 212, 189, 218
 C 184 217, 181, 217, 179, 214
 C 181 213, 182, 214, 184, 215
 C 179 193, 167, 175, 165, 152" fill="rgb(153,72,42)" />
<path  d="
 M 222 73 C 226 71, 231, 73, 233, 77
 C 235 83, 235, 88, 229, 90
 C 224 91, 219, 88, 218, 84
 C 218 79, 218, 76, 220, 74" fill="rgb(166,131,108)" />
<path  d="
 M 31 327 C 37 329, 44, 335, 52, 336
 C 50 342, 50, 346, 48, 349
 C 35 347, 35, 337, 32, 329" fill="rgb(171,93,59)" />
<path  d="
 M 444 453 C 451 452, 451, 462, 453, 466
 C 450 473, 446, 477, 442, 477
 C 435 472, 435, 466, 436, 461
 L 438 461
 L 437 463 C 438 467, 438, 475, 444, 474
 C 447 469, 449, 468, 451, 466
 C 449 465, 439, 466, 437, 463
 C 439 458, 441, 456, 443, 455" fill="rgb(116,91,79)" />
<path  d="
 M 225 153 C 226 157, 229, 175, 231, 179
 C 223 179, 219, 175, 218, 172
 C 217 164, 218, 159, 222, 156" fill="rgb(153,148,150)" />
<path  d="
 M 377 256 C 344 266, 320, 258, 275, 261
 C 297 262, 316, 266, 338, 264
 C 351 261, 364, 260, 376, 258" fill="rgb(181,150,128)" />
<path  d="
 M 304 248 C 295 263, 327, 254, 334, 257
 C 332 252, 327, 250, 322, 249
 C 316 249, 311, 248, 307, 248" fill="rgb(192,103,91)" />
<path  d="
 M 234 579 C 235 578, 237, 579, 238, 578
 C 245 582, 245, 586, 246, 590
 C 239 592, 235, 595, 229, 594
 C 228 589, 228, 585, 233, 580" fill="rgb(93,75,66)" />
<path  d="
 M 316 171 C 322 168, 330, 173, 327, 180
 C 325 184, 321, 187, 318, 188
 C 317 177, 313, 187, 311, 176
 L 312 173 L 313 172 L 315 172" fill="rgb(29,24,31)" />
<path  d="
 M 362 130 C 360 135, 357, 143, 360, 149
 C 355 150, 352, 146, 349, 145
 C 352 148, 364, 156, 365, 163
 C 367 159, 371, 149, 366, 149
 C 379 141, 392, 139, 403, 142
 C 398 144, 395, 146, 390, 145
 C 391 149, 394, 150, 393, 154
 C 397 161, 395, 169, 396, 175
 C 394 180, 394, 182, 393, 184
 C 389 189, 385, 190, 382, 188
 C 383 198, 386, 206, 387, 214
 C 386 206, 383, 199, 381, 191
 C 385 191, 389, 189, 391, 185
 C 395 182, 394, 179, 395, 177
 C 395 169, 397, 161, 394, 155
 C 398 150, 403, 148, 407, 145
 C 396 138, 382, 139, 374, 144
 C 369 146, 367, 147, 364, 148
 C 368 152, 370, 155, 367, 160
 C 364 157, 361, 155, 360, 152
 C 359 143, 359, 137, 361, 131" fill="rgb(99,46,33)" />
<path  d="
 M 265 197 C 270 194, 273, 199, 275, 203
 C 278 209, 273, 211, 271, 214
 C 264 215, 262, 211, 261, 208
 C 260 203, 261, 200, 263, 198" fill="rgb(151,133,122)" />
<path  d="
 M 105 282 C 107 281, 109, 288, 109, 291
 C 103 304, 103, 316, 97, 326
 C 96 312, 101, 299, 104, 285" fill="rgb(165,93,59)" />
<path  d="
 M 241 473 C 240 479, 256, 473, 258, 479
 C 259 483, 256, 486, 254, 490
 C 248 493, 246, 487, 244, 486
 C 241 481, 240, 479, 241, 475" fill="rgb(55,33,33)" />
<path  d="
 M 224 74 C 220 75, 219, 78, 218, 81
 C 219 87, 224, 90, 227, 90
 C 234 88, 234, 82, 233, 79
 C 231 74, 229, 73, 225, 74" fill="rgb(163,133,113)" />
<path  d="
 M 163 289 C 163 303, 143, 314, 136, 327
 C 132 319, 132, 306, 134, 300
 C 136 306, 133, 314, 135, 324
 C 142 312, 154, 304, 161, 293" fill="rgb(58,25,21)" />
<path  d="
 M 246 463 C 249 462, 253, 462, 255, 464
 C 258 469, 260, 474, 257, 477
 C 253 474, 246, 475, 244, 477
 C 243 471, 241, 469, 245, 465" fill="rgb(159,131,116)" />
<path  d="
 M 334 172 C 337 171, 343, 170, 345, 173
 C 348 179, 344, 181, 344, 184
 C 339 185, 342, 180, 340, 180
 C 339 187, 340, 188, 342, 184
 C 340 187, 346, 188, 342, 189
 C 338 188, 335, 187, 334, 183
 C 332 179, 332, 177, 332, 174" fill="rgb(31,25,31)" />
<path  d="
 M 413 431 C 412 432, 410, 431, 409, 432
 C 398 435, 390, 439, 382, 444
 C 393 445, 446, 424, 415, 432" fill="rgb(236,175,132)" />
<path  d="
 M 381 155 C 383 158, 381, 175, 387, 179
 C 377 179, 375, 174, 374, 169
 C 375 164, 374, 160, 378, 158" fill="rgb(141,135,138)" />
<path  d="
 M 32 327 C 36 335, 35, 346, 46, 347
 C 49 345, 49, 341, 51, 339
 C 44 335, 39, 332, 33, 329" fill="rgb(185,103,66)" />
<path  d="
 M 218 458 C 220 457, 223, 458, 224, 457
 C 229 460, 232, 464, 231, 468
 C 227 468, 221, 468, 217, 470
 C 215 466, 214, 462, 217, 460" fill="rgb(145,114,96)" />
<path  d="
 M 236 580 C 230 582, 228, 588, 229, 592
 C 235 594, 239, 592, 243, 591
 C 244 586, 243, 580, 237, 579" fill="rgb(109,90,79)" />
<path  d="
 M 380 352 C 389 375, 396, 401, 395, 428
 C 392 437, 381, 438, 377, 446
 C 373 445, 374, 443, 373, 442
 C 375 449, 369, 453, 366, 459
 C 373 452, 378, 445, 386, 440
 C 395 434, 404, 429, 413, 428
 C 408 428, 402, 429, 398, 432
 C 398 414, 395, 400, 392, 387
 C 389 374, 385, 364, 381, 353" fill="rgb(37,13,10)" />
<path  d="
 M 212 462 C 212 467, 211, 472, 213, 475
 C 218 481, 226, 483, 231, 476
 C 234 473, 232, 470, 233, 468
 C 232 476, 220, 464, 216, 472
 C 212 470, 212, 467, 213, 464" fill="rgb(47,28,27)" />
<path  d="
 M 370 197 C 373 195, 377, 200, 378, 202
 C 378 208, 377, 210, 374, 212
 C 369 212, 365, 209, 366, 204
 C 365 200, 367, 199, 369, 198" fill="rgb(159,142,128)" />
<path  d="
 M 223 74 C 226 72, 231, 74, 232, 77
 C 233 83, 233, 86, 229, 87
 C 225 89, 221, 87, 220, 85
 C 219 80, 220, 77, 221, 75" fill="rgb(177,150,131)" />
<path  d="
 M 122 351 C 127 359, 127, 372, 130, 381
 C 135 385, 139, 386, 144, 387
 C 137 389, 134, 387, 131, 386
 C 126 382, 127, 378, 125, 375
 C 121 376, 117, 379, 114, 381
 C 117 376, 120, 374, 124, 371
 C 123 364, 123, 359, 121, 355" fill="rgb(156,87,54)" />
<path  d="
 M 317 171 C 317 174, 314, 171, 313, 173
 C 312 182, 321, 183, 313, 185
 C 321 187, 324, 183, 326, 182
 C 328 175, 324, 170, 319, 172" fill="rgb(19,14,22)" />
<path  d="
 M 259 472 C 260 475, 259, 477, 258, 478
 C 254 470, 241, 483, 241, 475
 C 241 481, 244, 486, 249, 489
 C 256 487, 258, 481, 260, 475" fill="rgb(46,28,30)" />
<path  d="
 M 270 317 C 261 317, 249, 329, 242, 329
 C 234 339, 222, 350, 213, 363
 C 210 354, 211, 349, 211, 340
 C 209 347, 211, 355, 205, 359
 C 201 346, 202, 335, 200, 325
 C 201 335, 201, 346, 204, 356
 C 210 352, 211, 361, 211, 365
 C 219 354, 230, 346, 238, 336
 C 250 327, 261, 320, 272, 316" fill="rgb(37,12,10)" />
<path  d="
 M 300 37 C 317 40, 340, 48, 358, 55
 C 371 63, 381, 73, 390, 82
 C 381 72, 371, 63, 360, 56
 C 357 54, 356, 53, 354, 53
 C 338 43, 321, 39, 304, 36" fill="rgb(236,181,143)" />
<path  d="
 M 361 344 C 366 353, 373, 361, 378, 371
 C 376 363, 376, 354, 373, 346
 C 369 345, 365, 347, 363, 345" fill="rgb(192,119,81)" />
<path  d="
 M 213 201 C 242 203, 218, 202, 208, 208
 C 201 218, 201, 229, 202, 240
 C 197 230, 199, 218, 204, 211
 C 208 205, 211, 204, 214, 203" fill="rgb(161,79,47)" />
<path  d="
 M 211 462 C 215 463, 212, 473, 218, 476
 C 227 480, 230, 471, 232, 467
 C 233 469, 235, 473, 233, 475
 C 230 478, 228, 479, 226, 480
 C 219 483, 217, 478, 214, 476
 C 211 473, 210, 469, 211, 464" fill="rgb(54,30,25)" />
<path  d="
 M 171 357 C 174 367, 174, 383, 177, 394
 C 182 396, 183, 398, 187, 397
 C 184 400, 177, 397, 179, 403
 C 173 389, 172, 375, 170, 361" fill="rgb(159,92,58)" />
<path  d="
 M 266 199 C 260 202, 262, 211, 267, 213
 C 272 211, 274, 208, 275, 206
 C 272 203, 273, 197, 267, 199" fill="rgb(132,117,111)" />
<path  d="
 M 296 247 C 277 249, 292, 256, 301, 256
 C 312 258, 324, 257, 334, 258
 C 324 257, 312, 258, 302, 257
 C 300 252, 302, 250, 305, 249
 C 311 248, 315, 248, 320, 248
 C 327 249, 333, 252, 338, 255
 C 333 251, 327, 249, 321, 248
 C 318 247, 317, 247, 316, 248
 C 308 247, 302, 247, 297, 247" fill="rgb(96,45,47)" />
<path  d="
 M 374 14 C 343 29, 397, 11, 401, 25
 C 399 20, 393, 17, 388, 16
 C 382 16, 379, 15, 376, 16" fill="rgb(241,204,178)" />
<path  d="
 M 220 459 C 215 460, 215, 464, 216, 469
 C 220 467, 226, 467, 229, 469
 C 231 465, 230, 463, 227, 461
 C 225 458, 223, 459, 222, 458" fill="rgb(161,130,109)" />
<path  d="
 M 336 173 C 332 174, 334, 178, 333, 181
 C 336 187, 338, 187, 341, 189
 C 340 188, 337, 186, 337, 183
 C 342 177, 341, 184, 342, 184
 C 344 181, 346, 179, 345, 175
 C 343 171, 340, 173, 338, 172" fill="rgb(18,13,19)" />
<path  d="
 M 234 580 C 235 579, 237, 580, 238, 579
 C 244 582, 243, 586, 245, 588
 C 239 590, 223, 591, 233, 582" fill="rgb(127,108,95)" />
<path  d="
 M 105 282 C 102 297, 97, 310, 96, 325
 C 101 313, 106, 298, 107, 285" fill="rgb(181,107,69)" />
<path  d="
 M 252 120 C 262 128, 268, 139, 271, 150
 C 262 162, 256, 172, 251, 182
 C 248 187, 248, 190, 246, 193
 C 241 208, 237, 221, 240, 234
 C 238 212, 246, 196, 252, 185
 C 266 166, 256, 165, 284, 145
 C 283 144, 278, 147, 274, 152
 C 271 146, 266, 127, 254, 121" fill="rgb(91,48,35)" />
<path  d="
 M 225 156 C 219 159, 219, 164, 220, 170
 C 220 175, 225, 179, 228, 177
 C 226 171, 222, 164, 226, 156" fill="rgb(234,232,232)" />
<path  d="
 M 62 380 C 62 403, 69, 423, 76, 443
 C 75 454, 76, 464, 74, 473
 C 78 464, 76, 453, 78, 444
 C 70 422, 65, 402, 63, 381" fill="rgb(35,14,12)" />
<path  d="
 M 221 470 C 224 468, 227, 471, 230, 471
 C 229 476, 226, 479, 224, 479
 C 216 479, 210, 470, 220, 470" fill="rgb(53,36,36)" />
<path  d="
 M 427 513 C 428 525, 425, 533, 420, 545
 C 420 535, 422, 526, 425, 517" fill="rgb(145,77,48)" />
<path  d="
 M 263 200 C 266 198, 273, 200, 273, 205
 C 262 210, 278, 205, 270, 212
 C 261 208, 266, 209, 262, 202" fill="rgb(142,129,123)" />
<path  d="
 M 432 568 C 434 567, 441, 574, 438, 577
 C 433 579, 430, 581, 426, 580
 C 427 577, 429, 574, 430, 570" fill="rgb(50,31,33)" />
<path  d="
 M 406 317 C 413 325, 414, 339, 425, 346
 C 413 341, 409, 330, 405, 321" fill="rgb(137,79,55)" />
<path  d="
 M 305 498 C 305 509, 296, 524, 291, 535
 C 294 524, 298, 513, 303, 501" fill="rgb(117,97,89)" />
<path  d="
 M 111 566 C 134 575, 103, 571, 104, 581
 C 105 575, 104, 571, 109, 569" fill="rgb(43,28,35)" />
<path  d="
 M 126 262 C 130 274, 128, 292, 128, 305
 C 125 291, 125, 278, 125, 265" fill="rgb(67,28,22)" />
<path  d="
 M 248 463 C 242 467, 243, 471, 244, 475
 C 247 474, 253, 473, 255, 476
 C 260 472, 249, 475, 251, 461" fill="rgb(167,137,119)" />
<path  d="
 M 246 477 C 249 475, 254, 477, 255, 479
 C 256 484, 253, 486, 252, 488
 C 247 486, 243, 482, 244, 478" fill="rgb(53,36,41)" />
<path  d="
 M 165 151 C 168 171, 176, 189, 186, 207
 C 187 210, 188, 213, 187, 215
 C 183 215, 181, 215, 179, 214
 C 181 216, 184, 216, 186, 218
 C 189 221, 193, 221, 194, 223
 C 193 221, 190, 220, 188, 219
 C 187 214, 189, 209, 191, 214
 C 180 194, 171, 174, 166, 152" fill="rgb(129,52,26)" />
<path  d="
 M 236 580 C 224 589, 235, 589, 243, 589
 C 242 586, 243, 583, 240, 582
 L 239 581 L 238 581" fill="rgb(140,120,105)" />
<path  d="
 M 381 158 C 377 158, 377, 163, 376, 166
 C 377 172, 378, 178, 382, 179
 C 381 172, 378, 165, 381, 158" fill="rgb(230,226,227)" />
<path  d="
 M 396 38 C 399 39, 402, 47, 399, 51
 C 397 58, 393, 63, 388, 65
 C 395 60, 400, 49, 396, 40" fill="rgb(52,30,28)" />
<path  d="
 M 200 322 C 203 331, 202, 347, 205, 357
 C 200 347, 200, 336, 199, 326" fill="rgb(65,29,23)" />
<path  d="
 M 290 85 C 289 86, 287, 85, 286, 86
 C 282 87, 281, 86, 281, 88
 C 259 98, 258, 99, 280, 87
 C 289 85, 299, 84, 308, 86
 C 319 87, 326, 90, 333, 94
 C 344 98, 351, 104, 357, 112
 C 354 106, 347, 100, 342, 97
 C 332 91, 323, 88, 315, 86
 L 312 85 L 311 85 L 311 86
 L 308 86 C 303 84, 297, 85, 292, 84" fill="rgb(112,61,37)" />
<path  d="
 M 248 478 C 242 479, 247, 485, 249, 487
 C 253 485, 255, 484, 254, 481
 C 254 478, 251, 477, 250, 477" fill="rgb(59,42,48)" />
<path  d="
 M 250 522 C 253 527, 251, 539, 250, 544
 C 247 539, 248, 532, 249, 526" fill="rgb(147,78,51)" />
<path  d="
 M 196 492 C 199 503, 183, 499, 191, 503
 C 194 504, 198, 506, 201, 504
 C 200 499, 198, 497, 197, 495" fill="rgb(151,126,112)" />
<path  d="
 M 98 476 C 101 482, 99, 495, 95, 500
 C 96 494, 96, 486, 97, 479" fill="rgb(51,24,23)" />
<path  d="
 M 163 291 C 157 304, 143, 312, 136, 325
 C 133 316, 134, 307, 136, 300
 L 137 298
 L 135 300 C 132 306, 133, 318, 134, 327
 C 143 314, 157, 306, 162, 292" fill="rgb(41,13,10)" />
<path  d="
 M 133 459 C 139 463, 144, 473, 151, 479
 C 143 475, 138, 468, 133, 462" fill="rgb(60,27,21)" />
<path  d="
 M 418 564 C 425 561, 426, 571, 423, 574
 C 420 573, 419, 570, 416, 569
 L 416 568 L 417 567" fill="rgb(137,117,109)" />
<path  d="
 M 190 490 C 188 492, 188, 497, 189, 500
 C 195 499, 199, 490, 191, 489" fill="rgb(224,200,173)" />
<path  d="
 M 168 79 C 173 81, 164, 94, 164, 101
 C 162 94, 169, 85, 165, 79" fill="rgb(165,87,48)" />
<path  d="
 M 286 41 C 294 45, 269, 47, 264, 45
 C 269 44, 276, 43, 282, 42" fill="rgb(176,93,46)" />
<path  d="
 M 90 479 C 94 485, 84, 495, 84, 501
 C 82 494, 87, 489, 88, 482" fill="rgb(52,24,22)" />
<path  d="
 M 297 24 C 294 29, 289, 32, 285, 35
 C 289 36, 292, 34, 295, 33
 C 298 36, 293, 37, 293, 39
 C 283 44, 273, 45, 264, 45
 C 271 44, 277, 46, 285, 43
 C 289 43, 289, 41, 292, 42
 C 304 36, 302, 29, 293, 33
 C 295 30, 293, 29, 295, 26" fill="rgb(115,47,18)" />
<path  d="
 M 182 365 C 190 390, 197, 417, 206, 442
 C 197 417, 192, 391, 183, 367" fill="rgb(42,15,12)" />
<path  d="
 M 437 562 C 443 559, 444, 569, 442, 571
 C 438 571, 439, 567, 435, 569
 L 434 566 L 434 565 L 436 565" fill="rgb(138,118,111)" />
<path  d="
 M 78 471 C 81 474, 77, 485, 79, 491
 C 75 486, 75, 479, 77, 474" fill="rgb(54,24,23)" />
<path  d="
 M 393 111 C 397 116, 393, 127, 390, 132
 C 390 127, 392, 121, 391, 114" fill="rgb(174,86,49)" />
<path  d="
 M 419 443 C 416 444, 415, 447, 413, 450
 C 416 451, 420, 449, 422, 451
 C 421 451, 424, 445, 422, 442" fill="rgb(180,148,131)" />
<path  d="
 M 198 576 C 204 578, 209, 586, 214, 589
 C 208 589, 203, 583, 200, 578" fill="rgb(55,22,19)" />
<path  d="
 M 446 454 C 442 455, 439, 459, 438, 463
 C 441 463, 444, 463, 447, 464
 C 447 460, 443, 456, 445, 453" fill="rgb(173,142,122)" />
<path  d="
 M 324 326 C 330 327, 336, 335, 340, 339
 C 335 337, 331, 333, 327, 329" fill="rgb(56,31,25)" />
<path  d="
 M 226 75 M 225 76
 L 222 76 C 221 78, 222, 80, 221, 81
 C 226 82, 235, 79, 227, 74" fill="rgb(235,217,200)" />
<path  d="
 M 429 445 C 428 448, 430, 453, 428, 456
 C 423 453, 419, 451, 415, 453
 C 419 454, 423, 452, 424, 456
 C 425 462, 422, 467, 418, 468
 C 412 463, 412, 457, 411, 451
 C 409 456, 412, 463, 414, 468
 C 421 469, 424, 466, 425, 463
 C 428 456, 430, 451, 429, 446" fill="rgb(38,17,13)" />
<path  d="
 M 162 476 C 166 475, 168, 484, 173, 486
 C 171 487, 169, 487, 167, 490
 C 169 485, 165, 481, 163, 478" fill="rgb(157,82,48)" />
<path  d="
 M 221 78 C 220 81, 220, 84, 222, 85
 C 225 88, 229, 88, 230, 85
 C 231 82, 231, 81, 232, 80
 C 229 81, 221, 87, 220, 81" fill="rgb(170,138,116)" />
<path  d="
 M 113 568 M 112 569 M 111 569
 L 109 570 C 105 572, 106, 575, 102, 577
 C 98 571, 128, 575, 115, 569" fill="rgb(45,30,37)" />
<path  d="
 M 340 322 C 353 335, 362, 352, 373, 366
 C 363 353, 357, 336, 343, 324" fill="rgb(46,15,11)" />
<path  d="
 M 269 327 C 274 328, 259, 336, 259, 341
 C 259 337, 262, 332, 266, 329" fill="rgb(56,30,26)" />
<path  d="
 M 421 407 C 426 406, 425, 417, 427, 420
 C 427 412, 415, 412, 420, 408" fill="rgb(124,91,82)" />
<path  d="
 M 406 319 C 409 329, 413, 340, 423, 346
 C 415 338, 411, 329, 408, 320" fill="rgb(100,49,30)" />
<path  d="
 M 425 344 C 435 364, 443, 385, 449, 407
 C 444 386, 437, 365, 426, 346" fill="rgb(230,185,152)" />
<path  d="
 M 160 249 C 164 251, 164, 261, 165, 267
 C 162 262, 161, 257, 160, 251" fill="rgb(64,27,22)" />
<path  d="
 M 122 353 C 124 358, 124, 363, 125, 369
 C 121 374, 117, 377, 113, 379
 C 117 378, 121, 375, 125, 373
 C 126 377, 128, 378, 127, 382
 L 129 384 L 129 385
 L 131 385 C 134 386, 137, 388, 142, 387
 C 138 386, 133, 386, 129, 384
 C 126 373, 125, 363, 123, 354" fill="rgb(123,59,30)" />
<path  d="
 M 266 201 C 262 203, 265, 211, 270, 207
 C 273 204, 270, 200, 268, 201" fill="rgb(229,220,215)" />
<path  d="
 M 427 515 C 423 524, 422, 534, 418, 542
 C 424 532, 425, 529, 426, 516" fill="rgb(127,61,34)" />
<path  d="
 M 192 487 C 197 490, 205, 499, 202, 505
 C 181 507, 160, 492, 193, 510
 C 195 509, 198, 509, 199, 507
 C 202 505, 204, 505, 204, 504
 C 202 496, 199, 491, 194, 487" fill="rgb(40,17,14)" />
<path  d="
 M 173 339 C 180 370, 189, 400, 199, 430
 C 190 401, 181, 371, 173, 342" fill="rgb(232,176,139)" /></svg>