<svg xmlns="http://www.w3.org/2000/svg" width="600" height="600"><path fill="#AF7E59" d="M497 108c11 12 18 30 18 48-1 20-2 38-2 56 6-6 9-13 10-21 3 1 3 4 4 6 2 13-1 23-6 31 9 18 12 35 10 55-1 11-6 18-14 24-10 13-26 4-38 11 0 8-1 14 0 18 5 12 15 20 14 32 0 14 4 26 1 37-3 6-5 10-9 12-6-2-14 4-16-3-5 17-20 28-23 44 1 4 0 7 1 8 11 0 21-2 30 0 8 4 8 10 7 17-1-2-5-2-4-5-2 4-2 4-6 5-2-3-4-5-3-9-4 4-2 10 3 11-7 1-9-4-11-8-8 4 6 10 0 11-12-3-23 0-33-3-7-11-16-21-24-30-11 5-20 8-30 11 6-1 12-1 19 1 4 6 6 7 7 13-9-17-7 4-15-10-2 12 8 5 9 9-12 4-21 3-32 4 0 1-3 2-3 4-4-1-1-3-3-6-1 7-6 2-6 8-29 1-48 0-72-3-7-4-4-13-9-17-18 2-34 2-51-2-30-5-53-22-79-31-11-3-20-4-29-2 0-11 9-17 17-17-19-12-35-30-45-50-2-5-6-8-4-13 6 4 11 7 16 9-8-8-14-14-18-22-6-10-10-19-11-29 0-11-1-20 0-28 4 6 6 12 11 15-6-14-6-33-1-48 4-13 11-22 18-29 3 3-4 17 5 16 15-18 28-38 45-53 13-13 29-22 44-27 8 0 14-2 18 1-3 4-8 5-12 9 5 0 10-4 15-2-11 8-21 15-25 25 16-8 29-19 48-19 18-1 34 2 48 7 9 3 16 6 20 12 6 4 9 7 11 11-12-1-21-6-33-4 18 9 35 22 43 37 8 14 9 33 6 47-5-6-12-16-16-27 5 10 1 23 3 34-4 17-15 24-25 34-6-9-12-20-24-25 4 6 7 12 10 17-8-1-14-3-21-4-10 0-20 1-30 1-13 5-25 9-29 21 6-3 12-12 25-14-4 6-5 12-8 18-1 11 1 18 5 25 4 3 5 6 7 7 2-8 3-15 7-23 4 11 9 19 16 27 8 5 15 7 22 8 9-13 18-23 29-33 27-23 61-34 81-61-2-5-6-7-7-10 7-3 11-9 12-12-11-7-16-18-19-27 4-1 21-4 25-14-6-3-12-7-16-11-5-6-8-12-8-18-3-32 7-56 13-81 12 17 32 25 44 41 9 13 15 28 14 43 7-8 13-16 14-25 1-12 0-22-3-32 11 1 17 10 26 16 9-15 18-29 21-45"/><path fill="#A13C19" d="M240 261c-6 8-18 2-16 12-14 3-25-9-36 0-8 3-13 9-19 13-3 9-1 18-5 25-5 1-4 5-8 5-4-4-5-8-6-11-10 8-7 24-14 35-5 3-6-4-7-6 1 19 18 43 21 53 15 10 28 23 42 30 11 3 17-5 24-2 0 8-6 11-10 11-20 3-37 0-53-4 8 3 17 7 22 14 9 0 20 0 32 1 13 2 25 6 35 11 3-4 6-8 9-11 4-6-7 5-11 6 4-7 5-15 12-18-4 2-8 4-15 4 9-10 22-21 24-33-6-10-24-1-37-9-6-5-38-20-34-35-9 1 4 11 3 14-8-6-14-12-17-18-4-8-2-16-3-23 0-10 3-19 10-24 11-14 38-14 33-17 23-2 41 4 55 11 7 1-3-3 1-8 28 36-10 1 18 31-4-10-5-19-7-27-7-18-24-27-40-29"/><path fill="#F9C368" d="M185 163c-17 5-32 15-44 30-17 14-25 32-38 45-6 7-10 3-10 4 1-6 1-11 2-16-7 11-13 28-18 43 0 9-1 15 2 20 1 7 7-2 8-8 4 4 4 8 7 12 5-6 0-15 4-21 7-5 23-27 32-36 13-14 35-15 44-33 13-4 27-9 38-3 4 6-8 6-3 8-5 2-10 1-14 1 3 6 8 7 13 8-11 4-21 2-29 3 12 1 27 1 40-3 3-12 8-13 5-17 12-2 19-2 24 3 1 5-11 3-4 9 8 2 17 3 24 8 6 9 8 12 13 23 2-8 6 1 8 0 2 5 1 10 1 12 5-8 7-27 6-40-5-10-15-12-21-16 25-2 46 5 8-18-9-2-20-4-30-6-13 0-24-2-32 2-15 3-25 12-36 19-3-12 9-20 16-26-2 0-6 0-8 2-3-4-2-11-7-9"/><path fill="#AFC7B8" d="M372 294c4 16-29 43-25 53-15 2-21 0-33 4-5 1-11 6-16 10-4-6 1-9 3-13-7 6-15 14-18 22 6-1 8 6 15-2-10 14-20 27-20 42 14 21 36 12 44 23 8-5 10 0 19-7 7-10 10-24 6-36-7-9-17-13-25-17-7-4-10 4-17 1 2-3 5-7 11-7 13-4 24 4 29 0 2-11 8-3 10-9 2-7 0-12-1-17 4 3 5 1 6-5-1 12 10 18 13 27 14 11 29 19 41 28 2-5 5-4 5-7-6-3-1 2-3 5-11-13-24-22-32-33-3 1 1 3-1 6-6-2-11-4-12-9-4-11 0-20 2-28 1-5 3-10 8-11 7 3 10 2 16 1 2 12 0 13 7 22 1 7-5 3-6 1 1 4 3 7 4 11-4-1-7-2-8-4 11 17-11 4 0 13 11 11 25 1 34 17-1 2-6-2-9 0 1 1 5 3 1 6 4-5 13-3 17-5-8-13-20-22-31-34 1-6 6 1 7-4 22-17-12-31-35-43"/><path fill="#C1DACB" d="M383 113c-1 9 0 17 4 23 8 15 20 26 28 39 4 7 8 12 7 20-2 12-16 18-14 31-15 1-25 7-35 11 5 5 12 6 19 8 0 7-15 5-21 0 7 8 16 13 25 15-9 3-12 10-19 16 13 7 22 9 36 10-2 5-6 7 0 13-7 2-11 1-14 0 2 2 5 3 7 4 18 6 39-5 48-6-6-9 4-1 2-7-14-4-35-1-49-8-2-11 12-21 11-26 2-5 5-4 7-6 9 4 17 8 24 16s3 20 10 22c1 1 21 1 21 9-4-13-7-32-12-46-4-9-19-25-25-32-6 1-13 9-24 6 4-7 12-13 15-21 4-11 0-22-1-29-7-29-39-39-49-59"/><path fill="#F1783B" d="M218 222c-11 3-9 15-17 16-21 2-40 19-59 17-9-1-6-8-3-10 3-10 8-8 16-9 0-2-4-5 2-8-17 9-35 21-46 36 1 11-6 23-10 32 5 16 14 29 12 44-4 3-8 1-8 7 0 5 2 9 6 11-7-3-13-9-19-15-3 0-1 5-1 6-5-1-6-6-8-5 14 16 39 36 58 55 3-1 3-4 4-5-4-10-11-15-15-22-1-8 4 0 5-2-5-17-9-30-9-46 4 2 4 1 9 1 5-13 6-26 13-37 2 3 1 8 3 11-1-9-2-18 3-26 15-19 53-14 40-19 28 3 42-2 61 7 5-3-3-4 0-9 8 7 13 8 22 8-9-19-45-8-68-14-7-3-3-6-2-8 5-4 10-4 15-6 0-5 2-11-2-11"/><path fill="#F79E4A" d="M195 199c-3 1-7 0-9 2-19 12-36 24-56 33-9 12-23 31-30 41-5 3 0 12-4 17-5-1-6-6-8-10-2 6-6 15-9 11 2 4 3 9 2 15 1 9 10 10 13 16 5 9 9 17 8 25l2 2-2-3c2-3 4-8 10-6 2-17-7-30-12-43 6-13 10-25 10-35 12-15 27-26 41-35 6 2 2 4 7 5-5 4-11 4-13 4-6 4-5 7-8 11 2 7 6 3 11 5 16-4 34-12 53-15 9-3 5-14 16-18 8-2 6 5 7 8-5 6-11 5-15 8-3 3-5 8 1 8 20 0 44 2 57 5 6-1 7 3 9 7-2-3-3-9 3-6-9-14-18-8-23-18 8 3 13 4 18 7 9 5 9 18 12 21 4-8 5-25-6-18-4-8-6-16-13-23-8-4-16-5-23-6-8-7 2-8 5-9-8-6-18-7-25-4 1 2 3 2 4 1-11 3-3 11-9 14-28 2-23 12-47 16-3-6 8-11 13-12-2 0-8 2-9-1 11-1 21 1 30-1-5-1-9-4-12-8 12-1 13 0 18-8-5-3-10-4-16-3"/><path fill="#D15018" d="M490 159c3 12 5 24 5 36-2 8-4 13-8 18-6 6-11 9-17 9 6-6 12-12 13-19-1 5-6 7-9 10-3-14-22-20-21-33-7 17 7 18-7 34 5 12 15 18 20 27 11 19 12 39 22 56-3-6 7 0 4-4 5 1 6 4 11 3-2-5-1-27-1-39-3-9-12-8-16-13 5-5 13-3 17-9 8-4 12-10 16-15-6 7-19 12-31 12 4-2 7-4 9-8 2-1-6 3-9 3-2-2-2-4-3-7 7-10 10-20 15-29 3-6 7-1 5 2 2-6 0-11-1-15-3-8-8-14-12-18"/><path fill="#424845" d="M465 364c-9 17-8 36-13 54-27 6-46 29-71 33-16 4-30 6-46 5-3-2 2-4 3-7-7 9-15 14-23 20 11 0 20-5 33-3 9 2 15 6 24 5 21-1-12-8 36-16 6 5 10 14 17 21 2-3 14-6 20-9-4 2-8 2-9-3 11-29 21-18 29-45 0-5-6-4-5-9 3-16 2-31 3-44"/><path fill="#662313" d="M205 307c-13-4-9 15-15 28 1 6 3 7 2 11 4 10 9 18 17 24-8 2-18-19-19-13 8 16 40 28 33 30 19 3 35 4 35 8 2 13-11 23-18 33 1 0 5-3 6 0-2 5-3 10-6 14 5-1 11-11 15-9-14 7-8 27-22 27 7-1 10 10 2 7 14 0 20 2 30 0 5-11-9-25-7-39 0-18 5-32 11-44-10 0-19-1-24-9-9-7-12-15-13-25-4 10-3 16-4 22 1 3 3 4 6 5-9 5-13-5-19-9-5-7-7-13-6-20 2-10 3-20 12-26-12 3-23 7-27 18-3 1-2-1-3-2 3-10 7-12 9-15 10-7 20-10 30-12-8-4-15-4-23-5"/><path fill="#5A6560" d="M279 371c-11 15-20 33-18 52-3 20 8 33 14 47 9 8 20 1 30 2 11-3 18-11 25-16 8-1 18 0 25-1-6 0-13 1-20 0 11-14 15-21 18-30s4-21 0-29c3 4 12 5 9 13 1-3-1-7 1-9-2-2-6-2-9-6 1-4-4-6-7-7 7 9 6 24 2 34-4 11-10 18-17 26-6-1-10 5-13 2-10-11-29-6-36-17-8-12-9-30-11-42 0-6 2-13 7-18"/><path fill="#D3481F" d="M149 288c-7 11-8 24-12 36-4 2-9 4-9 0-1 2-1 5 0 8 2 13 3 25 6 36 2 7-4-1-4 1 5 11 19 18 15 28-20-9-37-31-57-44 14 18 32 28 53 51-4 0-7 0-10-1 4 4 8 5 11 10-1 2-5 1-7 0-12-1-33-23-36-26 11 17 32 24 35 32 6-1 12 3 19 7-11 3-25-3-37 4-1-5 6-10 7-10-6 3-9 7-10 10 7-1 17 1 24 3 23 8 48 23 73 28 3-7 11-1 15-3-20-3-37-12-56-17 1-2 5-2 8-3-5-2-13-14-23-14 16 1 32 4 50 2 6-1 12-3 12-9-8-3-14 4-22 1-17-9-33-21-47-32-5-13-17-35-19-52 3 0 4 12 8 4 6-13 4-27 14-35-1-4-2-9-1-14"/><path fill="#AC846E" d="M372 370c-2 3-4 6-5 9 16 12 28 27 38 41-18 19-9-6-30 18-1-5 0-7 1-9-2 2-1 4-4 5 1-5 1-8 3-11-4-5-2-15-10-18-7 18-15 34-29 48 19 2 35 0 50-4 13-9 66-25 26-32-1-9 9-11 4-17-14-12-30-16-43-28"/><path fill="#86998E" d="M359 352c-7 14-7 5-19 20 4-14-23 2-23-6-7 3-9 4-10 8 7-2 11-5 17 0 11 4 20 9 25 18 2 12 1 22-5 30-8 12-15 8-19 12-11-10-34-3-47-26-1-13 9-26 19-36-7 7-8-5-13 1-2-8 4-12 7-17-9 10-18 22-18 33 2 13 3 31 9 43 11 12 31 4 38 18 8-3 12-3 16-10 7-8 13-15 14-23 2-9 3-17 0-23-2-3-2-5-3-7 7 5 13 9 17 16-2-6 0-14 1-22-5-8-6-18-7-28"/><path fill="#E6BB85" d="M234 173c-1 1-3 0-4 1-53 21-55 24 2-4 20 2 40 7 59 14 7 5 14 9 17 16-10-2-21-7-31-3l-1 2 1-2 1 1v1c6 4 14 6 19 13 2 15-1 27-2 38 1 2-2 6-6 5 2 9 5 16 3 26s-9 0-5 5c2 5 14 10 12 21 4-5 6-11 6-17 6 6 4 2 6-3 2 5 1 6 0 7 4-12 4-30-2-41 9 19 16 13 16 28 5-14 4-31-2-43-11-18-27-32-44-39 10-5 21 0 30 4-2-7-6-11-11-14-3-1-4-4-6-4-18-9-37-12-56-13"/><path fill="#9D4F3C" d="M207 288c-2 1-5 0-6 3-10 7-22 9-25 21-1 13-5 29 4 39 4 7 8 12 12 15-2-4-4-8-7-11 0-4 2-3 3-4 7 8 12 16 20 21l2 1-2-2c-7-7-13-14-16-23 4-10-6-10 1-32-11 3-2-7-12-1 6-6 12-9 18-10 27-2 31 11 51 2-13-4-22-24-42-19"/><path fill="#C0D9CA" d="M382 314c-4 2-8 5-9 10-1 9-5 18-1 28 1 6 5 7 9 8 1-2 1-3 2-6 10 12 23 22 31 34-1-6 12-5 4-14 5-2 8 1 10 1-5-4-9-8-15-10-8-1-6-1-11 3-6-5-8-9-11-13-3-6 2-1 3 0 1-4-2-7-1-12 3 3 4 5 7 6-1-4-2-8-4-11 2 0 8 5 8 1-8-11-6-13-7-20-6 0-9-1-13-6"/><path fill="#C0D9CB" d="M323 384c0-2 1-1 3-1 11 8 17 17 21 23-4 7-8 10-11 13-3 0-7 0-8-5-1 2-1 4-2 6-2-5-1-9-7-8-1 1-4 2-3 4-6 1-2-2-4-4-5 5-6-3-10 2-4-9-7-14-2-21-4 4-7 6-11 7 6-21 18-13 33-16"/><path fill="#A9816B" d="M435 315c-6 0-4 3-10 6 10 13 21 17 28 26-3 11-2 21-7 30-1 7 7 10 7 15 10-22 13-46 13-72-10-1-20-2-29-5"/><path fill="#C2DBCD" d="M324 385c-6-1-21 3-24 1-7 3-8 7-10 10 6-2 3 7 3 13 2-7 0-13 5-16-1 6 0 12 3 18 6-3 6 6 11-1 2 2 0 6 1 6 3-2 3-4 4-6 7 1 8 4 7 9 1-3 3-3 2-6 3 5 7 5 9 6 20-15 5-20-7-35"/><path fill="#C0D9CC" d="M370 299c-19 20-46 28-67 47-2 8-12 10-4 14 4-4 10-9 16-12 10-2 18 0 27 3-4-13 34-37 26-52"/><path fill="#89514A" d="M384 150c-8 14-7 33-6 50 4 10 15 15 23 16 7-2 11-5 13-10 3-6 6-10 6-15-4-13-11-19-16-24 3 7 10 13 7 21-5 4-19 3-18 13-9-17-7-34-6-50"/><path fill="#64210B" d="M351 467c3 1 8 5 9 8-7-2-9 8-15 2 0 2 2 3 1 5-11-6-24-2-35-7 2-4 7-4 11-6-15 2-29 8-46 6-1 3 1 3 0 6 25 7 49 7 73 6 5-2 7-3 6-9 4 3 5 5 4 8h-1l1-1c2 0 3-1 2-4 11 0 17-2 25-1 3-2-6-8-1-10 6 3 7 5 9 8 1 1-2-3-2-6 15-9-28 5-38-4"/><path fill="#F5F2DE" d="M424 323c-2 8-8 14-9 22 7 15 21 22 28 32 7-10 3-17 8-28-7-10-20-14-24-24"/><path fill="#F76733" d="M82 359c5 12 11 20 18 30 14 12 27 23 41 25-2-5-7-6-11-10 3-1 7-1 9 0-8-8-15-17-24-24-11-10-20-14-31-20"/><path fill="#525F5E" d="M475 318c-14 6-6 26-13 60 5-6 10-11 17-9 7-1 13 2 14 7 2-14-7-25-15-36-2-8 1-15-1-22"/><path fill="#F9AC22" d="M188 258c-13 1-24 7-33 15-6 10-4 24-2 36 5 7 7-4 9-5 4-11 3-21 4-30 2-5 4-7 7-8 32 6 75 1 11-11"/><path fill="#58645F" d="M519 230c-4 5-8 9-14 11 1 7-1 14 6 15 0 18-11 14-6 30 1 4 3 7 3 10 3-2 3-5 6-5 1 7 3 12 0 16 12-7 16-17 17-29-3 6-10 12-17 13-3-10-2-16 1-22 4-8 5-16 12-19 0-6-4-12-7-18"/><path fill="#8DA197" d="M383 132c-10 9-6 4-10 16-3 15-9 33-2 51-1 7 3 15 10 17 6 5 13 5 19 8 1 4-13 3-3 4 9-1 5-7 8-11-6 1-13-1-17-4-7-6-12-11-12-17-1-20 0-38 8-52 5 0 9 6 14 9-6-5-12-11-14-19"/><path fill="#C88961" d="M253 254c7 1 1 6 1 6 10 6 21 13 26 24 6 12 11 31 8 40 5-8 12-10 15-17 4-5 9-11 8-18-7-1-5 8-11 21-5-11-13-16-15-24 2-3 3 2 5-4 1-7 2-14-1-18-4-2-7 6-3 12-6-4-5-9-8-14-12 0-16-5-22-9"/><path fill="#F5F0DA" d="M367 382c-1 7-1 13-2 20 4 2 7 11 8 8 1 5 5 11 1 19 4-3 5-6 7-9 1 4-2 6-3 9 6-3 12-6 15-9 7 1 3 4 2 7 3-3 5-6 7-9-12-9-15-22-33-34"/><path fill="#FDD453" d="M455 167c1 6-1 13 1 19 5 9 16 15 18 23 8-3 11-10 12-16-1-8-3-13-6-18-2-7-5 2-8 3-5-4-5-8-9-8-2 3-1 4 0 5-4-2-5-4-6-7"/><path fill="#F58D1A" d="M178 439c-23 1 31 13 38 17 11 2 18 3 24-1-8-11-12-10-26-15-12-2-23-1-32-2"/><path fill="#6C2106" d="M479 370c-5 0-11 2-13 7l-2 1v2l1-1v-3c5-1 11 2 16 3 6 3 8 8 7 13-4 20-12 7-13 11-1-7-15-3-12-15 2 9-3 18-2 24 10 1 18 8 28 1 3-15 11-40-8-44"/><path fill="#5F2410" d="M456 467c-5 3-9 2-13 1-6 7-19 5-17 10 6 10 25 5 37 9-4-2-5-8-3-12 5-1 6 11 9 9-1-2-3-6-1-9 5-1 8 1 6 7 7-4 10-13-4-13-6 1-9-1-12-2"/><path fill="#C44B17" d="M427 379c-15 8-5 19 0 28 11-2 20-9 24-10-1-8-4-14-9-17-6-1-10-1-14-1"/><path fill="#ADC6B9" d="M497 114c0 10-8 22-10 27 2-4 5-7 8-10 2 4 2 10-1 14-5 0 1-4-1-7-3 11-12 5-17 21 4 7 8 12 11 17 6 0 3-12 0-18 4 0 7 1 9 5 3-6 6-9 6-14 2-13 1-25-3-35"/><path fill="#592A26" d="M388 152c0 15-3 34 4 47 1-7 10-9 16-9 1-3 1-6 2-8-6-12-12-20-19-28"/><path fill="#69250F" d="M508 150c-1 7-4 14-5 21 5 12 8 23 8 34-3 9-6 15-12 20 9 4 20-8 24-16-1 12-7 18-13 25-6 6-12 7-18 8 2 8 11 1 12 10-1-3 0-6 0-9 5-5 11-9 15-15 6-6 5-12 6-17 3-9 0-13-1-18-2 9-8 17-14 23 5-21-4-42 0-64"/><path fill="#F3F2E5" d="M459 290c-12 9 0 18 14 21 8 3 13 2 19 1 1-7-7-10-9-14-8-2-16-5-24-7"/><path fill="#AE3E0F" d="M466 376c-1 6-4 13-1 18 10 12 10 3 15 10 5-7 10-12 6-19-5-6-12-7-18-8"/><path fill="#702509" d="M414 395c8 6 5 12 0 17 2 7 9 4 9 9 13 3 22-1 30-7 2-7 2-14 1-18 1 5 1 9-4 14-1-3-3-4-3-6 1 10-9 3-10 6-8 1-8 0-13 1-4-6-2-11-8-15"/><path fill="#D06E18" d="M160 373c11 4 20 17 28 25-8 1-15-1-21-3-13-7-25-27-3-12-1-4-3-5-3-6"/><path fill="#F8C56A" d="M74 303c-1 6-1 5 2 12 6 13 17 28 29 39-7-8-3-19-11-29-12-4-14-27-17-18"/><path fill="#6F2813" d="M217 284c-7 1 25 9 26 21 7 3 10 3 13 4-3-3-7-3-11-4-2-6-2-8-4-8 3-2 10-3 4-6 26 14 13-2 32 12-6-9-18-13-28-16-11-2-19-4-27-4"/><path fill="#F49F57" d="M69 288c-2 20 3 38 11 54 6-1 6 5 10 8 0-3-3-8 0-9 7 4 10 11 14 12-12-9-23-26-28-37-2-7-6-7-2-10 2-5 3 1 4 1-2-7-7-11-9-16"/><path fill="#5A6962" d="M377 279c3 2 2 7 7 5-3 4-6 5-7 7 16 9 40 22 40 29h6l1 2v-1c4-1 4-7 8-7-7-2-3 10-11 5-9-6 3-10 0-10-9-2-16-4-23-7-6-8 6-2 9-4-9-5-18-13-29-17"/><path fill="#221815" d="M425 255c-3 3 3 1 5 2-5 3-7 9-8 14 6-6 14 10 21 2 4 3 6 4 5 7 5-5 2-9-1-14-7-7-13-11-21-11"/><path fill="#E2531A" d="M451 143c3 6 4 12 3 20 6 7 0 0 3-4 7 5 10 11 14 16 4-2 5-5 5-8 5 4 7 9 10 14-2-6-7-12-10-19-8-8-15-14-23-18"/><path fill="#5F6A66" d="M498 109c3 7 7 15 7 23 0 13-2 23-7 32 7 1 8-14 10-21 5 16 1 30 3 45 4-17 4-34 0-52-3-10-7-18-12-26"/><path fill="#C1562F" d="M200 254c-20 2 22 3 23 14 1-3 17-2 17-10 6 0 9 1 12 3-18-7-30-4-50-8"/><path fill="#EAC18A" d="M192 159c-6 1-11 3-16 6-4 2-6 2-8 3-13 8-19 15-30 25-18 15-25 37-42 48-2-7-1-11 0-14l1-2v-1l-3-1c-2 5-5 7-8 11-7 10-9 19-10 29v3l-1 1c-1 13 1 25 5 33-6-2-9-9-12-15v4c-2 17 1 32 7 45-5-13-9-28-7-45 3 4 7 11 12 15h1v-1l-1-2c-5-11-5-24-4-37 1-11 4-20 9-28 5-5 7-8 9-12 0 6 0 10 1 15 0 4-2 4-1 7 19-12 25-36 44-51 25-15 2-8 37-30 4 0 8-4 12-3 4 0 3 4 5 5l-1 3 2 1c3-2 6-2 9-4-6 9-14 15-18 23 5-9 14-17 23-21-5-1-11-1-14 1h-2v-2c13-4 22-12 0-9"/><path fill="#C65627" d="M176 266c-2 2-6 2-8 5-2 6-1 11-2 14 1 10 1 10 0 2 8-5 13-12 20-15 16-10 31 6 36-1-12-5-29 0-44-5"/><path fill="#FA8F40" d="M118 286c21-8 12 18 5 26-2-8-9-16-4-25"/><path fill="#FDDB57" d="M504 195c-6 3-15 18-17 29 6 0 9-2 12-4 5-8 6-15 5-24"/><path fill="#86998D" d="M361 335c-4 8 1 18 6 27 14 16 30 22 44 32-5-9-25-19-37-29-5-11-16-17-13-29"/><path fill="#F6AA56" d="M104 243c2 1 6 7 8 10-4 5-7 9-11 10 0-8-10-5-6-15 3 1 4-6 8-3"/><path fill="#9E3810" d="M327 469c-37 8 8 7 15 11 1-6 11-1 15-5 2-2 0-3-2-4 4 3-45 3-27-2"/><path fill="#FA9141" d="m121 286-1 1c-5 9 2 17 2 24 6-5 15-29 0-24"/><path fill="#8A4838" d="M257 296c-12 13 1 12 15 19-1-9-5-15-13-18"/><path fill="#8E300C" d="M454 174c-2 11-8 22-15 28-3 9 7 8 4 13 16-16 1-20 11-40"/><path fill="#BA4311" d="M467 379v-1c24-2 6 15-1 16-2-6-2-10 0-13"/><path fill="#F86832" d="M130 417c-33 18 11 3 22 13-7-8-14-11-23-11"/><path fill="#F6A754" d="M105 244c-1 3-7 0-8 5-5 8 4 6 4 14 4-2 6-5 8-8 0-5-2-6-4-10"/><path fill="#A32A0D" d="M242 453c-4 11-23 4-29 7-9 0-16-2-23-4 14 7 29 9 44 11 3 0 8 0 4-3-2-2-5-1-7-2 4-4 9-4 11-7"/><path fill="#9F390E" d="M448 387c4 3 6 9 1 13-3 2-15 6-21 8-1-5-11-15-11-16 6 7 3 14 7 18 7 3 14-3 17-1 6-1 6-4 5-6 2 2 4 3 4 5 5-5 3-13 1-19"/><path fill="#9F452C" d="M193 374c11 4 22 12 34 15-6 2-9 2-15-1-7-3-14-6-18-11"/><path fill="#5E1202" d="M425 271c-6 1-2 9 2 13-1-2-6-5-3-8 7 2 11 4 16 6-1 4-3 3-4 4 4-1 9 1 11-4 1-4 0-5-2-6-7 3-13-3-18-5"/><path fill="#4C5B5B" d="M451 441c-4 3-8 8-12 11 0 10-7 12 0 14h7c-4-7 1-18 5-24"/><path fill="#9A360E" d="M508 187c-6 23 6 0-1 24-4 8-10 18-18 21 6-1 12-3 17-5 8-1 12-13 15-10-5 9-10 14-16 18-6 6-13 6-19 7 5 6 12 5 15 11 3 4 3 9 2 12-1-6 3-12-1-16-6 1-9-4-10-6 4-3 8-3 12-5l1-3 1-1h2l2-1c4-5 8-9 10-13s1-6 2-7c-2 3-7 10-14 12-1-2-5 2-8 1 3-6 6-10 7-15l1-2v-1h1l1-3c-1-5 0-10-2-15"/><path fill="#5F3A42" d="M211 344c-3 5-1 11 0 15 6 8 12 20 21 20-9-10-19-19-21-33"/><path fill="#F2CF6B" d="M257 234c7 7 15 5 21 15-7 2 5 16 4 22 2-5 4-12-1-22-4-9-14-11-23-14"/><path fill="#BD4511" d="M468 379c-2 3-3 8-2 13 6-3 24-12 2-14"/><path fill="#45322B" d="M525 252c-6 7-9 16-11 25 4-4 10-6 12-11 3-4-5-10 0-13"/><path fill="#5F6D64" d="M433 208c-2 6-8 10-11 14 8 2 29-5 12-11"/><path fill="#A78D84" d="M453 305c-28 10 24 10 30 11-11 2-19-6-29-9"/><path fill="#7E3E32" d="M202 312c24-2-4 10-7 15-1-7 2-12 7-13"/><path fill="#AFC8BA" d="M378 277c9 10 28 10 31 20l2 2 1-3c-7-1-2-7 2-8-17-4-20-2-35-10"/><path fill="#FA8738" d="M182 221c-27 12 6 10 11 3-3-3-7-2-10-3"/><path fill="#92330C" d="M494 183c-1 7 1 15-3 21-3-6-5-6-3-18 0 8-3 13-5 19-3 7-8 12-12 15 7 1 13-4 16-10 4-2 1-4 3-5 4-7 4-14 3-21"/><path fill="#E5A66D" d="M308 255c7 6 4 22 5 29-4-7-7-15-5-26"/><path fill="#72615A" d="M385 143c-3 6-5 13-7 19 2-4 2-13 10-13 13 16 23 20 32 36-8-15-21-29-33-42"/><path fill="#5C3639" d="M232 349c1 9 4 18 12 24 5 7 11 9 19 8-7-2-12-6-18-11-6-7-11-13-12-19"/><path fill="#601504" d="M529 265c-1 4-8 8-13 11l-1 2-1 1v2c-1 2-1 4-1 6 6 1 9 0 13-3 1-2-6 4-10 4-2-3-2-4-3-8 7 0 6 5 6 4 8-6 8-12 10-17"/><path fill="#444D47" d="M359 351c4 9 0 18 7 27 1-4 3-7 4-10-4-6-8-10-10-15"/><path fill="#C25D19" d="M165 377c-8 5-22 0 9 21-9-4-11-9-11-11 2-2 3-3 2-6 5 2 8 2 10 4-2-2-3-4-6-5-2-3-4-3-6-4"/><path fill="#180C08" d="M495 298c7 6-2 4 2 9-8-10-9-5-3 0h1v2h4c3-1 7-3 9-6-1-5-6-5-9-4"/><path fill="#A14730" d="M193 373c7 10 22 18 33 16-11-3-21-9-32-14"/><path fill="#FBBA51" d="m238 228 2-1 5 5c-3 5-7 5-9 4-7 0-3-7-1-8"/><path fill="#843823" d="M246 291c6 2-2 6-4 4 4 3 2 9 5 10 7-4 5-4 9-10-2-2-5-1-8-3"/><path fill="#B29788" d="M511 294c1 6-6 15-11 16 7 4 7 2 12-1 2-4 2-10 0-12"/><path fill="#964830" d="M272 289c3 11 5 13 12 24 0-7-2-17-10-23"/><path fill="#40463F" d="M353 393c5 10 5 25 0 35 3-6 6-11 8-16 4-10-5-11-7-17"/><path fill="#B2C7B8" d="M451 298c-12 6-26 9-40 6 7 4 16 2 24 3 9-2 15-4 17-10"/><path fill="#84463B" d="M205 313c-2 1-4 1-4 3-4 3-6 5-5 9-3 0 21-13 11-13"/><path fill="#9DB5AB" d="M380 113c0 9-5 21-5 27 3-3 3-7 6-8 4 2 4 5 6 7-4-7-7-16-5-26"/><path fill="#B84D20" d="M336 469c-34 3 20 3 16 2-2-3-9-3-16-2"/><path fill="#E9881A" d="M167 382c-3 5-4 3-3 8 2 3 6 3 9 5-7-9 7-9-5-12"/><path fill="#F7A932" d="M414 269c-5 3 0 8 1 10 2-1 5 1 7 2-1-5-2-9-7-12"/><path fill="#B44621" d="M190 276c19-2-7 7-9 9 1-6 4-6 7-8"/><path fill="#A82706" d="M425 277c-2 6 4 8 14 8-3-4-8-5-12-8"/><path fill="#883924" d="M193 308c0 2-8 0-10 5 6-2 5 3 11 6-1-3 5-10 1-11"/><path fill="#FBBB51" d="M239 228c-3 1-6 2-6 6 3 4 16 1 7-6"/><path fill="#F5A759" d="M87 235c-7 10-9 22-11 33 2-11 8-20 12-30"/><path fill="#819185" d="M507 255c-1 5-2 12-2 17 2-5 8-12 4-17"/><path fill="#72665E" d="M519 261c6-2 5 10 0 11-4-3-2-6-1-9"/><path fill="#792D0F" d="M449 186c-3 7-12 11-13 19-1 6 3 7 4 8 3-4-4-2-2-8 6-4 5-10 10-17"/><path fill="#6B7D75" d="M365 236c3 6 9 11 16 11-4-7-9-4-13-9"/><path fill="#4A5650" d="M414 308c10 3 0 11 9 10 5 0 2-5 6-5-4-2-9 0-13-4"/><path fill="#A6948C" d="M449 306c-8 3-18 4-28 3 6 1 52 9 20 3 1-4 9-6 10-5"/><path fill="#F59D1B" d="M173 385c-2 7 1 12 9 12h2l-2-1c-7-3-2-6-7-9"/><path fill="#83807C" d="M432 264c7-4 8 7 1 8-3-2-2-4-3-5"/><path fill="#D7B79A" d="M404 419c-2 3-6 5-8 9-2-3 0-4-1-7l-1 1-2 2c-5 2-9 4-13 8-1-9-1 0-6-3 1 1-1 2-1 3 1 8 12-4 19-8 1 2 3 4 0 7l3-1 2-2c2-6 6-4 8-7"/><path fill="#E6A265" d="M311 259c-3 8-4 17 1 24 1-7 0-15-2-23"/><path fill="#882B0E" d="M188 400c6 0 12 2 18 3-5 2-10 0-15-1"/><path fill="#7D9288" d="M375 278c-1 2 22 10 34 21-5-11-24-11-33-22"/></svg>